<svg width="155" height="36" viewBox="0 0 155 36" fill="none" xmlns="http://www.w3.org/2000/svg">
<path d="M152.954 29.4948C153.503 29.4948 153.9 29.119 153.987 28.6059L153.597 28.5264C153.51 28.8368 153.308 29.0318 152.954 29.0318C152.599 29.0318 152.396 28.8368 152.31 28.5264L151.92 28.6059C152.008 29.119 152.404 29.4948 152.954 29.4948ZM150.851 34.9722H151.407L154.42 30.7738V34.9722H154.985V29.9142H154.442L151.421 34.1127V29.9142H150.851V34.9722ZM139.489 34.9722H140.045L143.059 30.7738V34.9722H143.623V29.9142H143.08L140.06 34.1127V29.9142H139.489V34.9722ZM128.2 34.9722H128.771V32.6965H131.691V34.9722H132.261V29.9142H131.691V32.1605H128.771V29.9142H128.2V34.9722ZM117.669 33.1225L118.826 30.5428L119.974 33.1225H117.669ZM116.261 34.9722H116.846L117.446 33.6356H120.199L120.791 34.9722H121.406L119.101 29.8772H118.566L116.261 34.9722ZM105.477 34.9722H106.048V30.4339H108.895V34.9722H109.466V29.9142H105.477V34.9722ZM93.4075 34.9722H93.9631V30.8827L95.8063 33.5844H95.8357L97.6779 30.8751V34.9722H98.2487V29.9142H97.6714L95.8281 32.6736L93.986 29.9142H93.4075V34.9722ZM83.8307 34.5321C82.6749 34.5321 81.8361 33.592 81.8361 32.4427C81.8361 31.2792 82.6597 30.3544 83.8166 30.3544C84.9724 30.3544 85.8112 31.2945 85.8112 32.4427C85.8112 33.6062 84.9866 34.5321 83.8307 34.5321ZM83.8166 35.0594C85.3559 35.0594 86.4039 33.8382 86.4039 32.4427C86.4039 31.0341 85.37 29.8271 83.8307 29.8271C82.2915 29.8271 81.2435 31.0483 81.2435 32.4427C81.2435 33.8524 82.2773 35.0594 83.8166 35.0594ZM70.475 34.9722H71.0458V33.6138L72.1221 32.5222L74.0666 34.9722H74.7812L72.5197 32.1246L74.6876 29.9142H73.9501L71.0458 32.934V29.9142H70.475V34.9722ZM55.6082 33.1225L56.7651 30.5428L57.9133 33.1225H55.6082ZM54.1985 34.9722H54.7846L55.3848 33.6356H58.1377L58.7303 34.9722H59.3447L57.0396 29.8772H56.5047L54.1985 34.9722ZM43.4158 34.9722H43.9866V30.4339H46.8343V34.9722H47.4051V29.9142H43.4158V34.9722ZM32.1984 34.9722H32.7704V30.4339H35.6169V34.9722H36.1877V29.9142H32.1984V34.9722ZM21.8776 35.0594C22.4779 35.0594 23.0128 34.7413 23.4246 33.9101L25.4269 29.9142H24.8048L23.1936 33.2162L21.3286 29.9142H20.6782L22.9049 33.787C22.6075 34.3513 22.2393 34.5463 21.8929 34.5463C21.6249 34.5463 21.4517 34.5027 21.2491 34.3938L21.0257 34.8491C21.2927 34.9864 21.5454 35.0594 21.8776 35.0594ZM11.0797 32.6671V30.4415H12.3597C13.1757 30.4415 13.7182 30.8173 13.7182 31.5396C13.7182 32.2194 13.168 32.6671 12.3303 32.6671H11.0797ZM10.5089 34.9722H11.0797V33.1878H12.3085C13.3859 33.1878 14.2955 32.6235 14.2955 31.5331C14.2955 30.521 13.545 29.9142 12.4022 29.9142H10.5089V34.9722ZM0.456055 34.9722H1.02688V30.4339H3.68607V29.9142H0.456055V34.9722Z" fill="white"/>
<path fill-rule="evenodd" clip-rule="evenodd" d="M21.7432 0.669922H30.8754V17.5793H21.7432V0.669922ZM30.8754 25.8553H21.7432V21.0087H30.8754V25.8553Z" fill="white"/>
<path fill-rule="evenodd" clip-rule="evenodd" d="M10.875 6.80762H20.0073V17.5794H10.875V6.80762ZM20.0084 25.8555H10.8761V21.0088H20.0084V25.8555Z" fill="white"/>
<path fill-rule="evenodd" clip-rule="evenodd" d="M0 12.7339H9.13228V17.5795H0V12.7339ZM9.13228 25.8555H0V21.0088H9.13228V25.8555Z" fill="white"/>
<path d="M30.8754 18.7603H21.7432V19.8268H30.8754V18.7603Z" fill="white"/>
<path d="M9.13228 18.7603H0V19.8268H9.13228V18.7603Z" fill="white"/>
<path d="M20.0073 18.7603H10.875V19.8268H20.0073V18.7603Z" fill="white"/>
<path fill-rule="evenodd" clip-rule="evenodd" d="M131.657 25.2824V1.03927H138.375V10.8807L146.728 1.03927H154.693L145.51 11.4701L154.999 25.2824H146.93L140.846 16.2895L138.375 19.0075V25.2824H131.657ZM101.606 25.2824V1.03927H108.712L114.496 10.4254L120.286 1.03927H127.408V25.2824H120.69V11.3655L114.496 20.8551H114.364L108.187 11.4352V25.2824H101.606ZM86.2469 17.733C87.8864 17.733 89.1969 17.3114 90.1948 16.4627C91.1883 15.6141 91.684 14.4256 91.684 12.895C91.684 11.4069 91.1883 10.2347 90.1948 9.38066C89.1969 8.53204 87.8864 8.10391 86.2469 8.10391V17.733ZM74.0905 12.895C74.0905 14.4256 74.5872 15.6141 75.5797 16.4627C76.5786 17.3114 77.8946 17.733 79.5287 17.733V8.10391C77.8946 8.10391 76.5786 8.53204 75.5797 9.38066C74.5872 10.2347 74.0905 11.4069 74.0905 12.895ZM67.2339 12.7915C67.2339 11.25 67.5106 9.83603 68.0705 8.54402C68.6305 7.24984 69.4214 6.12996 70.4541 5.19526C71.4879 4.25404 72.781 3.52197 74.3279 3.00234C75.8803 2.47726 77.6124 2.2169 79.5287 2.2169V0H86.2469V2.2169C88.1631 2.2169 89.8952 2.47726 91.4476 3.00234C93 3.52197 94.2876 4.25404 95.3203 5.19526C96.3541 6.12996 97.145 7.24984 97.705 8.54402C98.2649 9.83603 98.5416 11.25 98.5416 12.7915C98.5416 14.3504 98.2649 15.7928 97.7104 17.1087C97.1625 18.4312 96.3716 19.574 95.3552 20.5381C94.3334 21.5011 93.0413 22.2582 91.4824 22.8008C89.9181 23.3487 88.1751 23.62 86.2469 23.62V26.3903H79.5287V23.62C77.6004 23.62 75.8574 23.3487 74.2931 22.8008C72.7342 22.2582 71.4411 21.5011 70.4203 20.5381C69.4039 19.574 68.613 18.4312 68.0651 17.1087C67.5106 15.7928 67.2339 14.3504 67.2339 12.7915ZM38.4307 25.2824V1.03927H45.5356L51.3202 10.4254L57.1092 1.03927H64.2315V25.2824H57.5133V11.3655L51.3202 20.8551H51.1873L45.0105 11.4352V25.2824H38.4307Z" fill="white"/>
</svg>
